<svg width="628" height="200" viewBox="0 0 628 200" fill="none" xmlns="http://www.w3.org/2000/svg">
<path d="M9.4005 193.782C9.4005 194.302 9.3355 194.768 9.2055 195.18C9.07983 195.592 8.89133 195.94 8.64 196.226C8.393 196.508 8.0875 196.725 7.7235 196.876C7.3595 197.028 6.94133 197.104 6.469 197.104C6.04 197.104 5.60233 197.043 5.156 196.922C5.16467 196.796 5.1755 196.673 5.1885 196.551C5.2015 196.426 5.21233 196.302 5.221 196.181C5.22967 196.107 5.25567 196.049 5.299 196.005C5.34667 195.958 5.41817 195.934 5.5135 195.934C5.5915 195.934 5.69333 195.953 5.819 195.992C5.949 196.031 6.12233 196.051 6.339 196.051C6.625 196.051 6.88067 196.008 7.106 195.921C7.33133 195.834 7.51983 195.7 7.6715 195.518C7.82317 195.336 7.938 195.104 8.016 194.822C8.09833 194.536 8.1395 194.198 8.1395 193.808V187.685H9.4005V193.782ZM14.7282 194.036C14.1952 194.053 13.7402 194.097 13.3632 194.166C12.9905 194.231 12.685 194.318 12.4467 194.426C12.2127 194.534 12.0415 194.662 11.9332 194.809C11.8292 194.957 11.7772 195.121 11.7772 195.303C11.7772 195.477 11.8053 195.626 11.8617 195.752C11.918 195.878 11.9938 195.982 12.0892 196.064C12.1888 196.142 12.3037 196.2 12.4337 196.239C12.568 196.274 12.711 196.291 12.8627 196.291C13.0663 196.291 13.2527 196.272 13.4217 196.233C13.5907 196.19 13.7488 196.129 13.8962 196.051C14.0478 195.973 14.1908 195.88 14.3252 195.771C14.4638 195.663 14.5982 195.54 14.7282 195.401V194.036ZM10.9907 191.345C11.3547 190.994 11.7468 190.732 12.1672 190.558C12.5875 190.385 13.0533 190.298 13.5647 190.298C13.933 190.298 14.2602 190.359 14.5462 190.48C14.8322 190.602 15.0727 190.771 15.2677 190.987C15.4627 191.204 15.61 191.466 15.7097 191.774C15.8093 192.082 15.8592 192.42 15.8592 192.788V197H15.3457C15.233 197 15.1463 196.983 15.0857 196.948C15.025 196.909 14.9773 196.835 14.9427 196.727L14.8127 196.103C14.6393 196.263 14.4703 196.406 14.3057 196.532C14.141 196.653 13.9677 196.757 13.7857 196.844C13.6037 196.926 13.4087 196.989 13.2007 197.033C12.997 197.08 12.7695 197.104 12.5182 197.104C12.2625 197.104 12.022 197.069 11.7967 197C11.5713 196.926 11.3742 196.818 11.2052 196.675C11.0405 196.532 10.9083 196.352 10.8087 196.135C10.7133 195.914 10.6657 195.654 10.6657 195.355C10.6657 195.095 10.7372 194.846 10.8802 194.608C11.0232 194.365 11.255 194.151 11.5757 193.964C11.8963 193.778 12.3145 193.626 12.8302 193.509C13.3458 193.388 13.9785 193.319 14.7282 193.301V192.788C14.7282 192.277 14.6177 191.891 14.3967 191.631C14.1757 191.367 13.8528 191.234 13.4282 191.234C13.1422 191.234 12.9017 191.271 12.7067 191.345C12.516 191.414 12.3492 191.494 12.2062 191.585C12.0675 191.672 11.9462 191.752 11.8422 191.826C11.7425 191.895 11.6428 191.93 11.5432 191.93C11.4652 191.93 11.398 191.91 11.3417 191.871C11.2853 191.828 11.2377 191.776 11.1987 191.715L10.9907 191.345ZM18.7136 191.371C18.8566 191.211 19.0082 191.065 19.1686 190.935C19.3289 190.805 19.4979 190.695 19.6756 190.604C19.8576 190.509 20.0482 190.437 20.2476 190.389C20.4512 190.337 20.6701 190.311 20.9041 190.311C21.2637 190.311 21.5801 190.372 21.8531 190.493C22.1304 190.61 22.3601 190.779 22.5421 191C22.7284 191.217 22.8692 191.479 22.9646 191.787C23.0599 192.095 23.1076 192.435 23.1076 192.807V197H21.9441V192.807C21.9441 192.309 21.8292 191.923 21.5996 191.65C21.3742 191.373 21.0297 191.234 20.5661 191.234C20.2237 191.234 19.9031 191.317 19.6041 191.481C19.3094 191.646 19.0364 191.869 18.7851 192.151V197H17.6216V190.415H18.3171C18.4817 190.415 18.5836 190.496 18.6226 190.656L18.7136 191.371Z" fill="black"/>
<path d="M61.4505 188.712V191.969H65.279V192.996H61.4505V197H60.1895V187.685H65.929V188.712H61.4505ZM71.1028 192.989C71.1028 192.721 71.0638 192.476 70.9858 192.255C70.9121 192.03 70.8016 191.837 70.6543 191.676C70.5113 191.512 70.3358 191.386 70.1278 191.299C69.9198 191.208 69.6836 191.163 69.4193 191.163C68.8646 191.163 68.4248 191.325 68.0998 191.65C67.7791 191.971 67.5798 192.417 67.5018 192.989H71.1028ZM72.0388 196.077C71.8958 196.25 71.7246 196.402 71.5253 196.532C71.326 196.658 71.1115 196.762 70.8818 196.844C70.6565 196.926 70.4225 196.987 70.1798 197.026C69.9371 197.069 69.6966 197.091 69.4583 197.091C69.0033 197.091 68.583 197.015 68.1973 196.863C67.816 196.707 67.4845 196.482 67.2028 196.188C66.9255 195.888 66.7088 195.52 66.5528 195.082C66.3968 194.645 66.3188 194.142 66.3188 193.574C66.3188 193.115 66.3881 192.686 66.5268 192.287C66.6698 191.889 66.8735 191.544 67.1378 191.254C67.4021 190.959 67.725 190.73 68.1063 190.565C68.4876 190.396 68.9166 190.311 69.3933 190.311C69.7876 190.311 70.1516 190.379 70.4853 190.513C70.8233 190.643 71.1136 190.834 71.3563 191.085C71.6033 191.332 71.7961 191.64 71.9348 192.008C72.0735 192.372 72.1428 192.788 72.1428 193.256C72.1428 193.438 72.1233 193.559 72.0843 193.62C72.0453 193.681 71.9716 193.711 71.8633 193.711H67.4628C67.4758 194.127 67.5321 194.489 67.6318 194.796C67.7358 195.104 67.8788 195.362 68.0608 195.57C68.2428 195.774 68.4595 195.927 68.7108 196.031C68.9621 196.131 69.2438 196.181 69.5558 196.181C69.8461 196.181 70.0953 196.148 70.3033 196.083C70.5156 196.014 70.6976 195.94 70.8493 195.862C71.001 195.784 71.1266 195.713 71.2263 195.648C71.3303 195.579 71.4191 195.544 71.4928 195.544C71.5881 195.544 71.6618 195.581 71.7138 195.654L72.0388 196.077ZM74.7275 195.414C74.9398 195.7 75.1716 195.901 75.423 196.018C75.6786 196.135 75.9581 196.194 76.2615 196.194C76.8811 196.194 77.3556 195.975 77.685 195.537C78.0143 195.1 78.179 194.448 78.179 193.581C78.179 192.775 78.0316 192.183 77.737 191.806C77.4466 191.425 77.0306 191.234 76.489 191.234C76.112 191.234 75.7826 191.321 75.501 191.494C75.2236 191.668 74.9658 191.913 74.7275 192.229V195.414ZM74.7275 191.364C75.0048 191.044 75.3168 190.788 75.6635 190.597C76.0145 190.407 76.4175 190.311 76.8725 190.311C77.2581 190.311 77.6048 190.385 77.9125 190.532C78.2245 190.68 78.4888 190.894 78.7055 191.176C78.9221 191.453 79.0868 191.791 79.1995 192.19C79.3165 192.589 79.375 193.037 79.375 193.535C79.375 194.068 79.31 194.554 79.18 194.991C79.05 195.429 78.8615 195.804 78.6145 196.116C78.3718 196.424 78.075 196.664 77.724 196.837C77.373 197.007 76.9786 197.091 76.541 197.091C76.1076 197.091 75.7415 197.011 75.4425 196.85C75.1478 196.686 74.89 196.454 74.669 196.155L74.6105 196.753C74.5758 196.918 74.4761 197 74.3115 197H73.564V187.425H74.7275V191.364Z" fill="black"/>
<path d="M124.881 187.685V197H123.776V190.155C123.776 190.064 123.778 189.967 123.783 189.863C123.791 189.759 123.8 189.653 123.809 189.544L120.611 195.368C120.511 195.563 120.359 195.661 120.156 195.661H119.974C119.77 195.661 119.618 195.563 119.519 195.368L116.256 189.518C116.282 189.748 116.295 189.96 116.295 190.155V197H115.19V187.685H116.119C116.232 187.685 116.318 187.696 116.379 187.718C116.44 187.74 116.498 187.8 116.555 187.9L119.772 193.633C119.824 193.737 119.874 193.845 119.922 193.958C119.974 194.071 120.021 194.185 120.065 194.302C120.108 194.185 120.153 194.071 120.201 193.958C120.249 193.841 120.301 193.73 120.357 193.626L123.516 187.9C123.568 187.8 123.624 187.74 123.685 187.718C123.75 187.696 123.839 187.685 123.952 187.685H124.881ZM130.368 194.036C129.835 194.053 129.38 194.097 129.003 194.166C128.63 194.231 128.325 194.318 128.086 194.426C127.852 194.534 127.681 194.662 127.573 194.809C127.469 194.957 127.417 195.121 127.417 195.303C127.417 195.477 127.445 195.626 127.501 195.752C127.558 195.878 127.633 195.982 127.729 196.064C127.828 196.142 127.943 196.2 128.073 196.239C128.208 196.274 128.351 196.291 128.502 196.291C128.706 196.291 128.892 196.272 129.061 196.233C129.23 196.19 129.388 196.129 129.536 196.051C129.687 195.973 129.83 195.88 129.965 195.771C130.103 195.663 130.238 195.54 130.368 195.401V194.036ZM126.63 191.345C126.994 190.994 127.386 190.732 127.807 190.558C128.227 190.385 128.693 190.298 129.204 190.298C129.573 190.298 129.9 190.359 130.186 190.48C130.472 190.602 130.712 190.771 130.907 190.987C131.102 191.204 131.25 191.466 131.349 191.774C131.449 192.082 131.499 192.42 131.499 192.788V197H130.985C130.873 197 130.786 196.983 130.725 196.948C130.665 196.909 130.617 196.835 130.582 196.727L130.452 196.103C130.279 196.263 130.11 196.406 129.945 196.532C129.781 196.653 129.607 196.757 129.425 196.844C129.243 196.926 129.048 196.989 128.84 197.033C128.637 197.08 128.409 197.104 128.158 197.104C127.902 197.104 127.662 197.069 127.436 197C127.211 196.926 127.014 196.818 126.845 196.675C126.68 196.532 126.548 196.352 126.448 196.135C126.353 195.914 126.305 195.654 126.305 195.355C126.305 195.095 126.377 194.846 126.52 194.608C126.663 194.365 126.895 194.151 127.215 193.964C127.536 193.778 127.954 193.626 128.47 193.509C128.985 193.388 129.618 193.319 130.368 193.301V192.788C130.368 192.277 130.257 191.891 130.036 191.631C129.815 191.367 129.492 191.234 129.068 191.234C128.782 191.234 128.541 191.271 128.346 191.345C128.156 191.414 127.989 191.494 127.846 191.585C127.707 191.672 127.586 191.752 127.482 191.826C127.382 191.895 127.282 191.93 127.183 191.93C127.105 191.93 127.038 191.91 126.981 191.871C126.925 191.828 126.877 191.776 126.838 191.715L126.63 191.345ZM134.36 191.735C134.568 191.284 134.823 190.933 135.127 190.682C135.43 190.426 135.801 190.298 136.238 190.298C136.377 190.298 136.509 190.314 136.635 190.344C136.765 190.374 136.88 190.422 136.979 190.487L136.895 191.351C136.869 191.46 136.804 191.514 136.7 191.514C136.639 191.514 136.55 191.501 136.433 191.475C136.316 191.449 136.184 191.436 136.037 191.436C135.829 191.436 135.642 191.466 135.478 191.527C135.317 191.588 135.172 191.679 135.042 191.8C134.917 191.917 134.802 192.064 134.698 192.242C134.598 192.415 134.507 192.615 134.425 192.84V197H133.261V190.415H133.924C134.05 190.415 134.137 190.439 134.184 190.487C134.232 190.535 134.264 190.617 134.282 190.734L134.36 191.735Z" fill="black"/>
<path d="M174.136 193.542L172.674 189.752C172.63 189.64 172.585 189.51 172.537 189.362C172.489 189.211 172.444 189.05 172.401 188.881C172.31 189.232 172.216 189.525 172.121 189.759L170.659 193.542H174.136ZM176.762 197H175.787C175.674 197 175.583 196.972 175.514 196.915C175.445 196.859 175.393 196.788 175.358 196.701L174.487 194.452H170.308L169.437 196.701C169.411 196.779 169.361 196.848 169.287 196.909C169.213 196.97 169.122 197 169.014 197H168.039L171.764 187.685H173.038L176.762 197ZM178.852 195.414C179.065 195.7 179.297 195.901 179.548 196.018C179.799 196.135 180.081 196.194 180.393 196.194C181.008 196.194 181.481 195.975 181.81 195.537C182.139 195.1 182.304 194.476 182.304 193.665C182.304 193.236 182.265 192.868 182.187 192.56C182.113 192.253 182.005 192.001 181.862 191.806C181.719 191.607 181.543 191.462 181.335 191.371C181.127 191.28 180.891 191.234 180.627 191.234C180.25 191.234 179.918 191.321 179.632 191.494C179.351 191.668 179.091 191.913 178.852 192.229V195.414ZM178.794 191.436C179.071 191.094 179.392 190.818 179.756 190.61C180.12 190.402 180.536 190.298 181.004 190.298C181.385 190.298 181.73 190.372 182.037 190.519C182.345 190.662 182.607 190.877 182.824 191.163C183.041 191.445 183.207 191.796 183.324 192.216C183.441 192.636 183.5 193.119 183.5 193.665C183.5 194.151 183.435 194.604 183.305 195.024C183.175 195.44 182.986 195.802 182.739 196.109C182.497 196.413 182.198 196.653 181.842 196.831C181.491 197.004 181.095 197.091 180.653 197.091C180.25 197.091 179.903 197.024 179.613 196.889C179.327 196.751 179.073 196.56 178.852 196.317V199.23H177.689V190.415H178.384C178.549 190.415 178.651 190.496 178.69 190.656L178.794 191.436ZM186.075 191.735C186.283 191.284 186.538 190.933 186.842 190.682C187.145 190.426 187.515 190.298 187.953 190.298C188.092 190.298 188.224 190.314 188.35 190.344C188.48 190.374 188.594 190.422 188.694 190.487L188.61 191.351C188.584 191.46 188.519 191.514 188.415 191.514C188.354 191.514 188.265 191.501 188.148 191.475C188.031 191.449 187.899 191.436 187.752 191.436C187.544 191.436 187.357 191.466 187.193 191.527C187.032 191.588 186.887 191.679 186.757 191.8C186.631 191.917 186.517 192.064 186.413 192.242C186.313 192.415 186.222 192.615 186.14 192.84V197H184.976V190.415H185.639C185.765 190.415 185.851 190.439 185.899 190.487C185.947 190.535 185.979 190.617 185.997 190.734L186.075 191.735Z" fill="black"/>
<path d="M232.881 187.685V197H231.776V190.155C231.776 190.064 231.778 189.967 231.783 189.863C231.791 189.759 231.8 189.653 231.809 189.544L228.611 195.368C228.511 195.563 228.359 195.661 228.156 195.661H227.974C227.77 195.661 227.618 195.563 227.519 195.368L224.256 189.518C224.282 189.748 224.295 189.96 224.295 190.155V197H223.19V187.685H224.119C224.232 187.685 224.318 187.696 224.379 187.718C224.44 187.74 224.498 187.8 224.555 187.9L227.772 193.633C227.824 193.737 227.874 193.845 227.922 193.958C227.974 194.071 228.021 194.185 228.065 194.302C228.108 194.185 228.153 194.071 228.201 193.958C228.249 193.841 228.301 193.73 228.357 193.626L231.516 187.9C231.568 187.8 231.624 187.74 231.685 187.718C231.75 187.696 231.839 187.685 231.952 187.685H232.881ZM238.368 194.036C237.835 194.053 237.38 194.097 237.003 194.166C236.63 194.231 236.325 194.318 236.086 194.426C235.852 194.534 235.681 194.662 235.573 194.809C235.469 194.957 235.417 195.121 235.417 195.303C235.417 195.477 235.445 195.626 235.501 195.752C235.558 195.878 235.633 195.982 235.729 196.064C235.828 196.142 235.943 196.2 236.073 196.239C236.208 196.274 236.351 196.291 236.502 196.291C236.706 196.291 236.892 196.272 237.061 196.233C237.23 196.19 237.388 196.129 237.536 196.051C237.687 195.973 237.83 195.88 237.965 195.771C238.103 195.663 238.238 195.54 238.368 195.401V194.036ZM234.63 191.345C234.994 190.994 235.386 190.732 235.807 190.558C236.227 190.385 236.693 190.298 237.204 190.298C237.573 190.298 237.9 190.359 238.186 190.48C238.472 190.602 238.712 190.771 238.907 190.987C239.102 191.204 239.25 191.466 239.349 191.774C239.449 192.082 239.499 192.42 239.499 192.788V197H238.985C238.873 197 238.786 196.983 238.725 196.948C238.665 196.909 238.617 196.835 238.582 196.727L238.452 196.103C238.279 196.263 238.11 196.406 237.945 196.532C237.781 196.653 237.607 196.757 237.425 196.844C237.243 196.926 237.048 196.989 236.84 197.033C236.637 197.08 236.409 197.104 236.158 197.104C235.902 197.104 235.662 197.069 235.436 197C235.211 196.926 235.014 196.818 234.845 196.675C234.68 196.532 234.548 196.352 234.448 196.135C234.353 195.914 234.305 195.654 234.305 195.355C234.305 195.095 234.377 194.846 234.52 194.608C234.663 194.365 234.895 194.151 235.215 193.964C235.536 193.778 235.954 193.626 236.47 193.509C236.985 193.388 237.618 193.319 238.368 193.301V192.788C238.368 192.277 238.257 191.891 238.036 191.631C237.815 191.367 237.492 191.234 237.068 191.234C236.782 191.234 236.541 191.271 236.346 191.345C236.156 191.414 235.989 191.494 235.846 191.585C235.707 191.672 235.586 191.752 235.482 191.826C235.382 191.895 235.282 191.93 235.183 191.93C235.105 191.93 235.038 191.91 234.981 191.871C234.925 191.828 234.877 191.776 234.838 191.715L234.63 191.345ZM246.79 190.415L243.117 198.944C243.078 199.03 243.029 199.1 242.968 199.152C242.912 199.204 242.823 199.23 242.701 199.23H241.843L243.046 196.616L240.329 190.415H241.33C241.43 190.415 241.508 190.441 241.564 190.493C241.625 190.541 241.666 190.595 241.687 190.656L243.449 194.803C243.518 194.985 243.577 195.176 243.624 195.375C243.685 195.171 243.75 194.978 243.819 194.796L245.529 190.656C245.555 190.587 245.598 190.53 245.659 190.487C245.724 190.439 245.795 190.415 245.873 190.415H246.79Z" fill="black"/>
<path d="M280.401 193.782C280.401 194.302 280.336 194.768 280.206 195.18C280.08 195.592 279.891 195.94 279.64 196.226C279.393 196.508 279.088 196.725 278.724 196.876C278.36 197.028 277.941 197.104 277.469 197.104C277.04 197.104 276.602 197.043 276.156 196.922C276.165 196.796 276.176 196.673 276.189 196.551C276.202 196.426 276.212 196.302 276.221 196.181C276.23 196.107 276.256 196.049 276.299 196.005C276.347 195.958 276.418 195.934 276.514 195.934C276.592 195.934 276.693 195.953 276.819 195.992C276.949 196.031 277.122 196.051 277.339 196.051C277.625 196.051 277.881 196.008 278.106 195.921C278.331 195.834 278.52 195.7 278.672 195.518C278.823 195.336 278.938 195.104 279.016 194.822C279.098 194.536 279.14 194.198 279.14 193.808V187.685H280.401V193.782ZM287.65 190.415V197H286.961C286.797 197 286.693 196.92 286.649 196.759L286.558 196.051C286.272 196.367 285.952 196.623 285.596 196.818C285.241 197.009 284.834 197.104 284.374 197.104C284.015 197.104 283.696 197.046 283.419 196.928C283.146 196.807 282.916 196.638 282.73 196.421C282.544 196.205 282.403 195.943 282.307 195.635C282.216 195.327 282.171 194.987 282.171 194.614V190.415H283.328V194.614C283.328 195.113 283.441 195.498 283.666 195.771C283.896 196.044 284.244 196.181 284.712 196.181C285.055 196.181 285.373 196.101 285.668 195.94C285.967 195.776 286.242 195.55 286.493 195.264V190.415H287.65ZM290.577 191.371C290.72 191.211 290.872 191.065 291.032 190.935C291.192 190.805 291.361 190.695 291.539 190.604C291.721 190.509 291.912 190.437 292.111 190.389C292.315 190.337 292.533 190.311 292.767 190.311C293.127 190.311 293.443 190.372 293.716 190.493C293.994 190.61 294.223 190.779 294.405 191C294.592 191.217 294.733 191.479 294.828 191.787C294.923 192.095 294.971 192.435 294.971 192.807V197H293.807V192.807C293.807 192.309 293.693 191.923 293.463 191.65C293.238 191.373 292.893 191.234 292.429 191.234C292.087 191.234 291.766 191.317 291.467 191.481C291.173 191.646 290.9 191.869 290.648 192.151V197H289.485V190.415H290.18C290.345 190.415 290.447 190.496 290.486 190.656L290.577 191.371Z" fill="black"/>
<path d="M334.401 193.782C334.401 194.302 334.336 194.768 334.206 195.18C334.08 195.592 333.891 195.94 333.64 196.226C333.393 196.508 333.088 196.725 332.724 196.876C332.36 197.028 331.941 197.104 331.469 197.104C331.04 197.104 330.602 197.043 330.156 196.922C330.165 196.796 330.176 196.673 330.189 196.551C330.202 196.426 330.212 196.302 330.221 196.181C330.23 196.107 330.256 196.049 330.299 196.005C330.347 195.958 330.418 195.934 330.514 195.934C330.592 195.934 330.693 195.953 330.819 195.992C330.949 196.031 331.122 196.051 331.339 196.051C331.625 196.051 331.881 196.008 332.106 195.921C332.331 195.834 332.52 195.7 332.672 195.518C332.823 195.336 332.938 195.104 333.016 194.822C333.098 194.536 333.14 194.198 333.14 193.808V187.685H334.401V193.782ZM341.65 190.415V197H340.961C340.797 197 340.693 196.92 340.649 196.759L340.558 196.051C340.272 196.367 339.952 196.623 339.596 196.818C339.241 197.009 338.834 197.104 338.374 197.104C338.015 197.104 337.696 197.046 337.419 196.928C337.146 196.807 336.916 196.638 336.73 196.421C336.544 196.205 336.403 195.943 336.307 195.635C336.216 195.327 336.171 194.987 336.171 194.614V190.415H337.328V194.614C337.328 195.113 337.441 195.498 337.666 195.771C337.896 196.044 338.244 196.181 338.712 196.181C339.055 196.181 339.373 196.101 339.668 195.94C339.967 195.776 340.242 195.55 340.493 195.264V190.415H341.65ZM344.681 187.425V197H343.524V187.425H344.681Z" fill="black"/>
<path d="M390.136 193.542L388.674 189.752C388.63 189.64 388.585 189.51 388.537 189.362C388.489 189.211 388.444 189.05 388.401 188.881C388.31 189.232 388.216 189.525 388.121 189.759L386.659 193.542H390.136ZM392.762 197H391.787C391.674 197 391.583 196.972 391.514 196.915C391.445 196.859 391.393 196.788 391.358 196.701L390.487 194.452H386.308L385.437 196.701C385.411 196.779 385.361 196.848 385.287 196.909C385.213 196.97 385.122 197 385.014 197H384.039L387.764 187.685H389.038L392.762 197ZM398.964 190.415V197H398.275C398.11 197 398.006 196.92 397.963 196.759L397.872 196.051C397.586 196.367 397.265 196.623 396.91 196.818C396.554 197.009 396.147 197.104 395.688 197.104C395.328 197.104 395.01 197.046 394.732 196.928C394.459 196.807 394.23 196.638 394.043 196.421C393.857 196.205 393.716 195.943 393.621 195.635C393.53 195.327 393.484 194.987 393.484 194.614V190.415H394.641V194.614C394.641 195.113 394.754 195.498 394.979 195.771C395.209 196.044 395.558 196.181 396.026 196.181C396.368 196.181 396.687 196.101 396.981 195.94C397.28 195.776 397.555 195.55 397.807 195.264V190.415H398.964ZM403.093 193.782C403.327 193.782 403.533 193.75 403.71 193.685C403.888 193.62 404.038 193.529 404.159 193.412C404.28 193.295 404.371 193.156 404.432 192.996C404.493 192.831 404.523 192.651 404.523 192.456C404.523 192.053 404.399 191.733 404.152 191.494C403.91 191.256 403.557 191.137 403.093 191.137C402.625 191.137 402.267 191.256 402.02 191.494C401.778 191.733 401.656 192.053 401.656 192.456C401.656 192.651 401.687 192.831 401.747 192.996C401.812 193.156 401.906 193.295 402.027 193.412C402.148 193.529 402.298 193.62 402.475 193.685C402.653 193.75 402.859 193.782 403.093 193.782ZM405.179 197.358C405.179 197.197 405.134 197.067 405.043 196.967C404.952 196.868 404.828 196.79 404.672 196.733C404.521 196.677 404.343 196.638 404.139 196.616C403.936 196.59 403.719 196.571 403.489 196.558C403.264 196.545 403.034 196.532 402.8 196.519C402.566 196.506 402.341 196.484 402.124 196.454C401.882 196.567 401.682 196.71 401.526 196.883C401.375 197.052 401.299 197.251 401.299 197.481C401.299 197.628 401.336 197.765 401.409 197.891C401.487 198.021 401.604 198.131 401.76 198.222C401.916 198.317 402.111 198.391 402.345 198.443C402.584 198.499 402.863 198.528 403.184 198.528C403.496 198.528 403.775 198.499 404.022 198.443C404.269 198.387 404.477 198.307 404.646 198.203C404.82 198.099 404.952 197.975 405.043 197.832C405.134 197.689 405.179 197.531 405.179 197.358ZM406.356 190.675V191.104C406.356 191.247 406.265 191.338 406.083 191.377L405.335 191.475C405.483 191.761 405.556 192.077 405.556 192.424C405.556 192.745 405.494 193.037 405.368 193.301C405.247 193.561 405.078 193.785 404.861 193.971C404.644 194.157 404.384 194.3 404.081 194.4C403.778 194.5 403.448 194.549 403.093 194.549C402.785 194.549 402.495 194.513 402.222 194.439C402.083 194.526 401.977 194.619 401.903 194.718C401.83 194.814 401.793 194.911 401.793 195.011C401.793 195.167 401.856 195.286 401.981 195.368C402.111 195.446 402.28 195.503 402.488 195.537C402.696 195.572 402.933 195.594 403.197 195.602C403.466 195.611 403.739 195.626 404.016 195.648C404.298 195.665 404.571 195.698 404.835 195.745C405.104 195.793 405.342 195.871 405.55 195.979C405.758 196.088 405.925 196.237 406.05 196.428C406.18 196.619 406.245 196.866 406.245 197.169C406.245 197.451 406.174 197.724 406.031 197.988C405.892 198.252 405.691 198.486 405.426 198.69C405.162 198.898 404.837 199.063 404.451 199.184C404.07 199.31 403.639 199.373 403.158 199.373C402.677 199.373 402.257 199.325 401.897 199.23C401.537 199.134 401.238 199.006 401 198.846C400.762 198.686 400.582 198.499 400.46 198.287C400.343 198.079 400.285 197.86 400.285 197.631C400.285 197.306 400.387 197.03 400.59 196.805C400.794 196.58 401.074 196.4 401.429 196.265C401.234 196.179 401.078 196.064 400.961 195.921C400.848 195.774 400.792 195.576 400.792 195.33C400.792 195.234 400.809 195.137 400.844 195.037C400.879 194.933 400.931 194.831 401 194.731C401.074 194.627 401.162 194.53 401.266 194.439C401.37 194.348 401.492 194.268 401.63 194.198C401.305 194.016 401.052 193.776 400.87 193.477C400.688 193.174 400.597 192.823 400.597 192.424C400.597 192.103 400.658 191.813 400.779 191.553C400.905 191.289 401.078 191.065 401.299 190.883C401.52 190.697 401.782 190.554 402.085 190.454C402.393 190.355 402.729 190.305 403.093 190.305C403.379 190.305 403.645 190.337 403.892 190.402C404.139 190.463 404.365 190.554 404.568 190.675H406.356Z" fill="black"/>
<path d="M443.954 189.141C443.915 189.206 443.872 189.256 443.824 189.291C443.781 189.321 443.727 189.336 443.662 189.336C443.588 189.336 443.501 189.3 443.402 189.226C443.302 189.152 443.176 189.072 443.025 188.985C442.877 188.894 442.697 188.812 442.485 188.738C442.277 188.665 442.024 188.628 441.725 188.628C441.443 188.628 441.194 188.667 440.977 188.745C440.765 188.819 440.585 188.92 440.438 189.05C440.295 189.18 440.186 189.334 440.113 189.512C440.039 189.685 440.002 189.874 440.002 190.077C440.002 190.337 440.065 190.554 440.191 190.727C440.321 190.896 440.49 191.042 440.698 191.163C440.91 191.284 441.148 191.39 441.413 191.481C441.681 191.568 441.954 191.659 442.232 191.754C442.513 191.85 442.786 191.958 443.051 192.079C443.319 192.196 443.558 192.346 443.766 192.528C443.978 192.71 444.147 192.933 444.273 193.197C444.403 193.462 444.468 193.787 444.468 194.172C444.468 194.58 444.398 194.963 444.26 195.323C444.121 195.678 443.917 195.988 443.649 196.252C443.384 196.517 443.057 196.725 442.667 196.876C442.281 197.028 441.842 197.104 441.348 197.104C440.741 197.104 440.191 196.996 439.697 196.779C439.203 196.558 438.78 196.261 438.429 195.888L438.793 195.29C438.828 195.243 438.869 195.204 438.917 195.173C438.969 195.139 439.025 195.121 439.086 195.121C439.142 195.121 439.205 195.145 439.274 195.193C439.348 195.236 439.43 195.293 439.521 195.362C439.612 195.431 439.716 195.507 439.833 195.589C439.95 195.672 440.082 195.748 440.23 195.817C440.381 195.886 440.552 195.945 440.743 195.992C440.934 196.036 441.148 196.057 441.387 196.057C441.686 196.057 441.952 196.016 442.186 195.934C442.42 195.852 442.617 195.737 442.778 195.589C442.942 195.438 443.068 195.258 443.155 195.05C443.241 194.842 443.285 194.61 443.285 194.354C443.285 194.073 443.22 193.843 443.09 193.665C442.964 193.483 442.797 193.332 442.589 193.21C442.381 193.089 442.143 192.987 441.874 192.905C441.605 192.818 441.332 192.732 441.055 192.645C440.778 192.554 440.505 192.45 440.236 192.333C439.967 192.216 439.729 192.064 439.521 191.878C439.313 191.692 439.144 191.46 439.014 191.182C438.888 190.901 438.826 190.554 438.826 190.142C438.826 189.813 438.888 189.495 439.014 189.187C439.144 188.879 439.33 188.606 439.573 188.368C439.82 188.13 440.121 187.939 440.477 187.796C440.836 187.653 441.248 187.581 441.712 187.581C442.232 187.581 442.704 187.664 443.129 187.828C443.558 187.993 443.935 188.231 444.26 188.543L443.954 189.141ZM450.344 192.989C450.344 192.721 450.305 192.476 450.227 192.255C450.153 192.03 450.043 191.837 449.896 191.676C449.753 191.512 449.577 191.386 449.369 191.299C449.161 191.208 448.925 191.163 448.661 191.163C448.106 191.163 447.666 191.325 447.341 191.65C447.02 191.971 446.821 192.417 446.743 192.989H450.344ZM451.28 196.077C451.137 196.25 450.966 196.402 450.767 196.532C450.567 196.658 450.353 196.762 450.123 196.844C449.898 196.926 449.664 196.987 449.421 197.026C449.178 197.069 448.938 197.091 448.7 197.091C448.245 197.091 447.824 197.015 447.439 196.863C447.057 196.707 446.726 196.482 446.444 196.188C446.167 195.888 445.95 195.52 445.794 195.082C445.638 194.645 445.56 194.142 445.56 193.574C445.56 193.115 445.629 192.686 445.768 192.287C445.911 191.889 446.115 191.544 446.379 191.254C446.643 190.959 446.966 190.73 447.348 190.565C447.729 190.396 448.158 190.311 448.635 190.311C449.029 190.311 449.393 190.379 449.727 190.513C450.065 190.643 450.355 190.834 450.598 191.085C450.845 191.332 451.037 191.64 451.176 192.008C451.315 192.372 451.384 192.788 451.384 193.256C451.384 193.438 451.365 193.559 451.326 193.62C451.287 193.681 451.213 193.711 451.105 193.711H446.704C446.717 194.127 446.773 194.489 446.873 194.796C446.977 195.104 447.12 195.362 447.302 195.57C447.484 195.774 447.701 195.927 447.952 196.031C448.203 196.131 448.485 196.181 448.797 196.181C449.087 196.181 449.337 196.148 449.545 196.083C449.757 196.014 449.939 195.94 450.091 195.862C450.242 195.784 450.368 195.713 450.468 195.648C450.572 195.579 450.66 195.544 450.734 195.544C450.829 195.544 450.903 195.581 450.955 195.654L451.28 196.077ZM453.969 195.414C454.181 195.7 454.413 195.901 454.664 196.018C454.916 196.135 455.197 196.194 455.509 196.194C456.125 196.194 456.597 195.975 456.926 195.537C457.256 195.1 457.42 194.476 457.42 193.665C457.42 193.236 457.381 192.868 457.303 192.56C457.23 192.253 457.121 192.001 456.978 191.806C456.835 191.607 456.66 191.462 456.452 191.371C456.244 191.28 456.008 191.234 455.743 191.234C455.366 191.234 455.035 191.321 454.749 191.494C454.467 191.668 454.207 191.913 453.969 192.229V195.414ZM453.91 191.436C454.188 191.094 454.508 190.818 454.872 190.61C455.236 190.402 455.652 190.298 456.12 190.298C456.502 190.298 456.846 190.372 457.154 190.519C457.461 190.662 457.724 190.877 457.94 191.163C458.157 191.445 458.324 191.796 458.441 192.216C458.558 192.636 458.616 193.119 458.616 193.665C458.616 194.151 458.551 194.604 458.421 195.024C458.291 195.44 458.103 195.802 457.856 196.109C457.613 196.413 457.314 196.653 456.959 196.831C456.608 197.004 456.211 197.091 455.769 197.091C455.366 197.091 455.02 197.024 454.729 196.889C454.443 196.751 454.19 196.56 453.969 196.317V199.23H452.805V190.415H453.501C453.665 190.415 453.767 190.496 453.806 190.656L453.91 191.436Z" fill="black"/>
<path d="M501.736 187.685V197H501.106C501.006 197 500.921 196.983 500.852 196.948C500.787 196.913 500.722 196.855 500.657 196.772L495.269 189.752C495.277 189.861 495.284 189.967 495.288 190.071C495.292 190.175 495.295 190.272 495.295 190.363V197H494.19V187.685H494.84C494.896 187.685 494.944 187.69 494.983 187.698C495.022 187.703 495.056 187.714 495.087 187.731C495.117 187.744 495.147 187.766 495.178 187.796C495.208 187.822 495.24 187.857 495.275 187.9L500.664 194.913C500.655 194.801 500.646 194.692 500.638 194.588C500.633 194.48 500.631 194.378 500.631 194.283V187.685H501.736ZM506.417 190.311C506.898 190.311 507.331 190.392 507.717 190.552C508.102 190.712 508.432 190.94 508.705 191.234C508.978 191.529 509.186 191.887 509.329 192.307C509.476 192.723 509.55 193.189 509.55 193.704C509.55 194.224 509.476 194.692 509.329 195.108C509.186 195.524 508.978 195.88 508.705 196.174C508.432 196.469 508.102 196.697 507.717 196.857C507.331 197.013 506.898 197.091 506.417 197.091C505.931 197.091 505.494 197.013 505.104 196.857C504.718 196.697 504.389 196.469 504.116 196.174C503.843 195.88 503.632 195.524 503.485 195.108C503.342 194.692 503.271 194.224 503.271 193.704C503.271 193.189 503.342 192.723 503.485 192.307C503.632 191.887 503.843 191.529 504.116 191.234C504.389 190.94 504.718 190.712 505.104 190.552C505.494 190.392 505.931 190.311 506.417 190.311ZM506.417 196.188C507.067 196.188 507.552 195.971 507.873 195.537C508.193 195.1 508.354 194.491 508.354 193.711C508.354 192.927 508.193 192.316 507.873 191.878C507.552 191.44 507.067 191.221 506.417 191.221C506.087 191.221 505.799 191.278 505.552 191.39C505.309 191.503 505.106 191.666 504.941 191.878C504.781 192.09 504.659 192.352 504.577 192.664C504.499 192.972 504.46 193.321 504.46 193.711C504.46 194.491 504.62 195.1 504.941 195.537C505.266 195.971 505.758 196.188 506.417 196.188ZM516.481 190.415L513.797 197H512.757L510.072 190.415H511.015C511.11 190.415 511.188 190.439 511.249 190.487C511.31 190.535 511.351 190.591 511.372 190.656L513.043 194.894C513.095 195.054 513.14 195.21 513.179 195.362C513.218 195.514 513.255 195.665 513.29 195.817C513.325 195.665 513.361 195.514 513.4 195.362C513.439 195.21 513.487 195.054 513.543 194.894L515.233 190.656C515.259 190.587 515.303 190.53 515.363 190.487C515.424 190.439 515.496 190.415 515.578 190.415H516.481Z" fill="black"/>
<path d="M556.263 192.346C556.263 193.044 556.152 193.678 555.931 194.25C555.71 194.822 555.398 195.312 554.995 195.719C554.592 196.127 554.107 196.443 553.539 196.668C552.976 196.889 552.352 197 551.667 197H548.19V187.685H551.667C552.352 187.685 552.976 187.798 553.539 188.023C554.107 188.244 554.592 188.561 554.995 188.972C555.398 189.38 555.71 189.869 555.931 190.441C556.152 191.013 556.263 191.648 556.263 192.346ZM554.969 192.346C554.969 191.774 554.891 191.263 554.735 190.812C554.579 190.361 554.358 189.98 554.072 189.668C553.786 189.356 553.439 189.118 553.032 188.953C552.625 188.788 552.17 188.706 551.667 188.706H549.451V195.979H551.667C552.17 195.979 552.625 195.897 553.032 195.732C553.439 195.568 553.786 195.332 554.072 195.024C554.358 194.712 554.579 194.331 554.735 193.88C554.891 193.429 554.969 192.918 554.969 192.346ZM562.124 192.989C562.124 192.721 562.085 192.476 562.007 192.255C561.934 192.03 561.823 191.837 561.676 191.676C561.533 191.512 561.357 191.386 561.149 191.299C560.941 191.208 560.705 191.163 560.441 191.163C559.886 191.163 559.446 191.325 559.121 191.65C558.801 191.971 558.601 192.417 558.523 192.989H562.124ZM563.06 196.077C562.917 196.25 562.746 196.402 562.547 196.532C562.347 196.658 562.133 196.762 561.903 196.844C561.678 196.926 561.444 196.987 561.201 197.026C560.959 197.069 560.718 197.091 560.48 197.091C560.025 197.091 559.604 197.015 559.219 196.863C558.837 196.707 558.506 196.482 558.224 196.188C557.947 195.888 557.73 195.52 557.574 195.082C557.418 194.645 557.34 194.142 557.34 193.574C557.34 193.115 557.41 192.686 557.548 192.287C557.691 191.889 557.895 191.544 558.159 191.254C558.424 190.959 558.746 190.73 559.128 190.565C559.509 190.396 559.938 190.311 560.415 190.311C560.809 190.311 561.173 190.379 561.507 190.513C561.845 190.643 562.135 190.834 562.378 191.085C562.625 191.332 562.818 191.64 562.956 192.008C563.095 192.372 563.164 192.788 563.164 193.256C563.164 193.438 563.145 193.559 563.106 193.62C563.067 193.681 562.993 193.711 562.885 193.711H558.484C558.497 194.127 558.554 194.489 558.653 194.796C558.757 195.104 558.9 195.362 559.082 195.57C559.264 195.774 559.481 195.927 559.732 196.031C559.984 196.131 560.265 196.181 560.577 196.181C560.868 196.181 561.117 196.148 561.325 196.083C561.537 196.014 561.719 195.94 561.871 195.862C562.022 195.784 562.148 195.713 562.248 195.648C562.352 195.579 562.441 195.544 562.514 195.544C562.61 195.544 562.683 195.581 562.735 195.654L563.06 196.077ZM569.168 191.585C569.133 191.633 569.099 191.67 569.064 191.696C569.029 191.722 568.982 191.735 568.921 191.735C568.856 191.735 568.784 191.709 568.706 191.657C568.628 191.601 568.531 191.54 568.414 191.475C568.301 191.41 568.16 191.351 567.991 191.299C567.827 191.243 567.623 191.215 567.38 191.215C567.055 191.215 566.769 191.273 566.522 191.39C566.275 191.503 566.067 191.668 565.898 191.884C565.734 192.101 565.608 192.363 565.521 192.671C565.439 192.979 565.398 193.323 565.398 193.704C565.398 194.103 565.443 194.458 565.534 194.77C565.625 195.078 565.753 195.338 565.918 195.55C566.087 195.758 566.288 195.919 566.522 196.031C566.761 196.14 567.027 196.194 567.322 196.194C567.604 196.194 567.835 196.161 568.017 196.096C568.199 196.027 568.349 195.951 568.466 195.869C568.587 195.787 568.687 195.713 568.765 195.648C568.847 195.579 568.927 195.544 569.005 195.544C569.101 195.544 569.174 195.581 569.226 195.654L569.551 196.077C569.408 196.255 569.246 196.406 569.064 196.532C568.882 196.658 568.685 196.764 568.472 196.85C568.264 196.933 568.046 196.993 567.816 197.033C567.586 197.072 567.352 197.091 567.114 197.091C566.702 197.091 566.319 197.015 565.963 196.863C565.612 196.712 565.307 196.493 565.047 196.207C564.787 195.917 564.583 195.561 564.436 195.141C564.289 194.721 564.215 194.242 564.215 193.704C564.215 193.215 564.282 192.762 564.416 192.346C564.555 191.93 564.754 191.572 565.014 191.273C565.279 190.97 565.602 190.734 565.983 190.565C566.369 190.396 566.811 190.311 567.309 190.311C567.773 190.311 568.18 190.387 568.531 190.539C568.886 190.686 569.2 190.896 569.473 191.169L569.168 191.585Z" fill="black"/>
<path d="M605.401 193.782C605.401 194.302 605.336 194.768 605.206 195.18C605.08 195.592 604.891 195.94 604.64 196.226C604.393 196.508 604.088 196.725 603.724 196.876C603.36 197.028 602.941 197.104 602.469 197.104C602.04 197.104 601.602 197.043 601.156 196.922C601.165 196.796 601.176 196.673 601.189 196.551C601.202 196.426 601.212 196.302 601.221 196.181C601.23 196.107 601.256 196.049 601.299 196.005C601.347 195.958 601.418 195.934 601.514 195.934C601.592 195.934 601.693 195.953 601.819 195.992C601.949 196.031 602.122 196.051 602.339 196.051C602.625 196.051 602.881 196.008 603.106 195.921C603.331 195.834 603.52 195.7 603.672 195.518C603.823 195.336 603.938 195.104 604.016 194.822C604.098 194.536 604.14 194.198 604.14 193.808V187.685H605.401V193.782ZM610.728 194.036C610.195 194.053 609.74 194.097 609.363 194.166C608.99 194.231 608.685 194.318 608.447 194.426C608.213 194.534 608.041 194.662 607.933 194.809C607.829 194.957 607.777 195.121 607.777 195.303C607.777 195.477 607.805 195.626 607.862 195.752C607.918 195.878 607.994 195.982 608.089 196.064C608.189 196.142 608.304 196.2 608.434 196.239C608.568 196.274 608.711 196.291 608.863 196.291C609.066 196.291 609.253 196.272 609.422 196.233C609.591 196.19 609.749 196.129 609.896 196.051C610.048 195.973 610.191 195.88 610.325 195.771C610.464 195.663 610.598 195.54 610.728 195.401V194.036ZM606.991 191.345C607.355 190.994 607.747 190.732 608.167 190.558C608.587 190.385 609.053 190.298 609.565 190.298C609.933 190.298 610.26 190.359 610.546 190.48C610.832 190.602 611.073 190.771 611.268 190.987C611.463 191.204 611.61 191.466 611.71 191.774C611.809 192.082 611.859 192.42 611.859 192.788V197H611.346C611.233 197 611.146 196.983 611.086 196.948C611.025 196.909 610.977 196.835 610.943 196.727L610.813 196.103C610.639 196.263 610.47 196.406 610.306 196.532C610.141 196.653 609.968 196.757 609.786 196.844C609.604 196.926 609.409 196.989 609.201 197.033C608.997 197.08 608.769 197.104 608.518 197.104C608.262 197.104 608.022 197.069 607.797 197C607.571 196.926 607.374 196.818 607.205 196.675C607.04 196.532 606.908 196.352 606.809 196.135C606.713 195.914 606.666 195.654 606.666 195.355C606.666 195.095 606.737 194.846 606.88 194.608C607.023 194.365 607.255 194.151 607.576 193.964C607.896 193.778 608.314 193.626 608.83 193.509C609.346 193.388 609.978 193.319 610.728 193.301V192.788C610.728 192.277 610.618 191.891 610.397 191.631C610.176 191.367 609.853 191.234 609.428 191.234C609.142 191.234 608.902 191.271 608.707 191.345C608.516 191.414 608.349 191.494 608.206 191.585C608.067 191.672 607.946 191.752 607.842 191.826C607.742 191.895 607.643 191.93 607.543 191.93C607.465 191.93 607.398 191.91 607.342 191.871C607.285 191.828 607.238 191.776 607.199 191.715L606.991 191.345ZM614.714 191.371C614.857 191.211 615.008 191.065 615.169 190.935C615.329 190.805 615.498 190.695 615.676 190.604C615.858 190.509 616.048 190.437 616.248 190.389C616.451 190.337 616.67 190.311 616.904 190.311C617.264 190.311 617.58 190.372 617.853 190.493C618.13 190.61 618.36 190.779 618.542 191C618.728 191.217 618.869 191.479 618.965 191.787C619.06 192.095 619.108 192.435 619.108 192.807V197H617.944V192.807C617.944 192.309 617.829 191.923 617.6 191.65C617.374 191.373 617.03 191.234 616.566 191.234C616.224 191.234 615.903 191.317 615.604 191.481C615.309 191.646 615.036 191.869 614.785 192.151V197H613.622V190.415H614.317C614.482 190.415 614.584 190.496 614.623 190.656L614.714 191.371Z" fill="black"/>
<line y1="166" x2="626" y2="166" stroke="#E1E1E1" stroke-opacity="0.6" stroke-width="2"/>
<line y1="111" x2="626" y2="111" stroke="#E1E1E1" stroke-opacity="0.6" stroke-width="2"/>
<line y1="56" x2="626" y2="56" stroke="#E1E1E1" stroke-opacity="0.6" stroke-width="2"/>
<line y1="1" x2="626" y2="1" stroke="#E1E1E1" stroke-opacity="0.6" stroke-width="2"/>
<rect y="49" width="32" height="117" rx="7" fill="#E5F1FF"/>
<rect x="54" y="82" width="32" height="84" rx="7" fill="#E5F1FF"/>
<rect x="108" y="17" width="33" height="149" rx="7" fill="#0075FF"/>
<rect x="162" y="61" width="33" height="105" rx="7" fill="#E5F1FF"/>
<rect x="217" y="101" width="32" height="65" rx="7" fill="#E5F1FF"/>
<rect x="271" y="82" width="32" height="84" rx="7" fill="#0075FF"/>
<rect x="325" y="29" width="32" height="137" rx="7" fill="#E5F1FF"/>
<rect x="379" y="82" width="32" height="84" rx="7" fill="#E5F1FF"/>
<rect x="433" y="113" width="33" height="53" rx="7" fill="#0075FF"/>
<rect x="487" y="61" width="33" height="105" rx="7" fill="#E5F1FF"/>
<rect x="542" y="37" width="32" height="129" rx="7" fill="#0075FF"/>
<rect x="596" y="82" width="32" height="84" rx="7" fill="#E5F1FF"/>
</svg>
