<svg width="22" height="22" viewBox="0 0 22 22" fill="none" xmlns="http://www.w3.org/2000/svg">
<path d="M14.3001 6.5998C14.3001 7.47502 13.9524 8.31439 13.3335 8.93326C12.7147 9.55213 11.8753 9.8998 11.0001 9.8998C10.1249 9.8998 9.28552 9.55213 8.66665 8.93326C8.04778 8.31439 7.7001 7.47502 7.7001 6.5998C7.7001 5.72459 8.04778 4.88522 8.66665 4.26635C9.28552 3.64748 10.1249 3.2998 11.0001 3.2998C11.8753 3.2998 12.7147 3.64748 13.3335 4.26635C13.9524 4.88522 14.3001 5.72459 14.3001 6.5998V6.5998ZM19.8001 8.7998C19.8001 9.38328 19.5683 9.94286 19.1557 10.3554C18.7432 10.768 18.1836 10.9998 17.6001 10.9998C17.0166 10.9998 16.457 10.768 16.0445 10.3554C15.6319 9.94286 15.4001 9.38328 15.4001 8.7998C15.4001 8.21633 15.6319 7.65675 16.0445 7.24417C16.457 6.83159 17.0166 6.5998 17.6001 6.5998C18.1836 6.5998 18.7432 6.83159 19.1557 7.24417C19.5683 7.65675 19.8001 8.21633 19.8001 8.7998V8.7998ZM15.4001 16.4998C15.4001 15.3329 14.9365 14.2137 14.1114 13.3885C13.2862 12.5634 12.167 12.0998 11.0001 12.0998C9.83314 12.0998 8.71399 12.5634 7.88883 13.3885C7.06367 14.2137 6.6001 15.3329 6.6001 16.4998V19.7998H15.4001V16.4998ZM6.6001 8.7998C6.6001 9.38328 6.36831 9.94286 5.95573 10.3554C5.54315 10.768 4.98357 10.9998 4.4001 10.9998C3.81662 10.9998 3.25704 10.768 2.84446 10.3554C2.43188 9.94286 2.2001 9.38328 2.2001 8.7998C2.2001 8.21633 2.43188 7.65675 2.84446 7.24417C3.25704 6.83159 3.81662 6.5998 4.4001 6.5998C4.98357 6.5998 5.54315 6.83159 5.95573 7.24417C6.36831 7.65675 6.6001 8.21633 6.6001 8.7998V8.7998ZM17.6001 19.7998V16.4998C17.6017 15.3814 17.3177 14.2811 16.7751 13.3032C17.2628 13.1784 17.7725 13.1666 18.2654 13.2688C18.7584 13.371 19.2214 13.5844 19.6193 13.8927C20.0173 14.2011 20.3395 14.5962 20.5614 15.048C20.7834 15.4999 20.8992 15.9964 20.9001 16.4998V19.7998H17.6001ZM5.2251 13.3032C4.68252 14.2812 4.39856 15.3814 4.4001 16.4998V19.7998H1.1001V16.4998C1.09989 15.996 1.21501 15.4989 1.43664 15.0465C1.65827 14.5942 1.98053 14.1985 2.37872 13.89C2.77691 13.5814 3.24046 13.3681 3.73384 13.2664C4.22722 13.1647 4.73734 13.1773 5.2251 13.3032V13.3032Z" fill="#737682"/>
</svg>
