<svg width="22" height="22" viewBox="0 0 22 22" fill="none" xmlns="http://www.w3.org/2000/svg">
<path d="M4.90591 5.67559L5.49991 8.20559L4.90591 10.7246L7.11691 12.0886L8.46991 14.2996L10.9999 13.7056L13.5299 14.2996L14.8829 12.0886L17.0939 10.7246L16.4999 8.20559L17.0939 5.67559L14.8939 4.31159L13.5299 2.10059L10.9999 2.70559L8.48091 2.11159L7.10591 4.31159L4.90591 5.67559ZM11.0109 12.6496C9.84396 12.6496 8.7248 12.186 7.89964 11.3609C7.07448 10.5357 6.61091 9.41654 6.61091 8.24959C6.61091 7.08263 7.07448 5.96348 7.89964 5.13832C8.7248 4.31316 9.84396 3.84959 11.0109 3.84959C13.4309 3.84959 15.3999 5.81859 15.3999 8.23859C15.3999 10.6806 13.4309 12.6496 11.0109 12.6496ZM10.9889 11.5496C9.16291 11.5496 7.69991 10.0756 7.69991 8.24959C7.69991 6.43459 9.16291 4.94959 10.9889 4.94959C12.8149 4.94959 14.2999 6.43459 14.2999 8.24959C14.2999 10.0756 12.8149 11.5496 10.9889 11.5496ZM15.2129 12.7596L13.8049 15.2236L11.5169 14.7066L14.2999 21.1196L15.8399 18.6996H18.5899L15.2129 12.7596ZM6.74291 12.8366L8.11791 15.3116L10.4609 14.7506L7.69991 21.1196L6.15991 18.6996H3.40991L6.74291 12.8366Z" fill="#737682"/>
</svg>
