<svg width="22" height="22" viewBox="0 0 22 22" fill="none" xmlns="http://www.w3.org/2000/svg">
<g clip-path="url(#clip0_26_362)">
<path d="M10.0833 16.4997H11.9166V14.6663H10.0833V16.4997ZM10.9999 1.83301C5.93992 1.83301 1.83325 5.93967 1.83325 10.9997C1.83325 16.0597 5.93992 20.1663 10.9999 20.1663C16.0599 20.1663 20.1666 16.0597 20.1666 10.9997C20.1666 5.93967 16.0599 1.83301 10.9999 1.83301ZM10.9999 18.333C6.95742 18.333 3.66659 15.0422 3.66659 10.9997C3.66659 6.95717 6.95742 3.66634 10.9999 3.66634C15.0424 3.66634 18.3333 6.95717 18.3333 10.9997C18.3333 15.0422 15.0424 18.333 10.9999 18.333ZM10.9999 5.49967C8.97409 5.49967 7.33325 7.14051 7.33325 9.16634H9.16659C9.16659 8.15801 9.99159 7.33301 10.9999 7.33301C12.0083 7.33301 12.8333 8.15801 12.8333 9.16634C12.8333 10.9997 10.0833 10.7705 10.0833 13.7497H11.9166C11.9166 11.6872 14.6666 11.458 14.6666 9.16634C14.6666 7.14051 13.0258 5.49967 10.9999 5.49967Z" fill="#737682"/>
</g>
<defs>
<clipPath id="clip0_26_362">
<rect width="22" height="22" fill="white"/>
</clipPath>
</defs>
</svg>
