<svg width="11" height="18" viewBox="0 0 11 18" fill="none" xmlns="http://www.w3.org/2000/svg">
<path d="M5.54155 13.675C3.65321 13.675 2.91071 12.8317 2.80988 11.75H0.793213C0.903213 13.7575 2.40655 14.885 4.16655 15.2608V17.25H6.91655V15.2792C8.70405 14.94 10.1249 13.9042 10.1249 12.025C10.1249 9.42167 7.89738 8.5325 5.81655 7.99167C3.73571 7.45083 3.06655 6.89167 3.06655 6.02083C3.06655 5.02167 3.99238 4.325 5.54155 4.325C7.17321 4.325 7.77821 5.10417 7.83321 6.25H9.85905C9.79488 4.67333 8.83238 3.225 6.91655 2.7575V0.75H4.16655V2.73C2.38821 3.115 0.958213 4.27 0.958213 6.03917C0.958213 8.15667 2.70905 9.21083 5.26655 9.825C7.55821 10.375 8.01655 11.1817 8.01655 12.0342C8.01655 12.6667 7.56738 13.675 5.54155 13.675V13.675Z" fill="#737682"/>
</svg>
