<svg width="28" height="28" viewBox="0 0 28 28" fill="none" xmlns="http://www.w3.org/2000/svg">
<path d="M12.88 2.24023V4.3869H4.29333C3.724 4.3869 3.17799 4.61307 2.77541 5.01564C2.37283 5.41822 2.14667 5.96424 2.14667 6.53357V23.7069C2.14667 24.2762 2.37283 24.8222 2.77541 25.2248C3.17799 25.6274 3.724 25.8536 4.29333 25.8536H21.4667C22.036 25.8536 22.582 25.6274 22.9846 25.2248C23.3872 24.8222 23.6133 24.2762 23.6133 23.7069V15.1202H25.76V23.7069C25.76 24.8456 25.3077 25.9376 24.5025 26.7427C23.6974 27.5479 22.6053 28.0002 21.4667 28.0002H4.29333C3.15467 28.0002 2.06264 27.5479 1.25749 26.7427C0.452332 25.9376 0 24.8456 0 23.7069V6.53357C0 5.3949 0.452332 4.30288 1.25749 3.49772C2.06264 2.69257 3.15467 2.24023 4.29333 2.24023H12.88Z" fill="#737682"/>
<path d="M21.2799 11.2C22.4681 11.2 23.6076 10.728 24.4478 9.88784C25.2879 9.04767 25.7599 7.90817 25.7599 6.72C25.7599 5.53183 25.2879 4.39232 24.4478 3.55216C23.6076 2.712 22.4681 2.24 21.2799 2.24C20.0918 2.24 18.9523 2.712 18.1121 3.55216C17.2719 4.39232 16.7999 5.53183 16.7999 6.72C16.7999 7.90817 17.2719 9.04767 18.1121 9.88784C18.9523 10.728 20.0918 11.2 21.2799 11.2ZM21.2799 13.44C20.3975 13.44 19.5236 13.2662 18.7083 12.9285C17.893 12.5908 17.1522 12.0958 16.5282 11.4718C15.9042 10.8477 15.4092 10.1069 15.0715 9.29163C14.7338 8.47632 14.5599 7.60248 14.5599 6.72C14.5599 5.83752 14.7338 4.96367 15.0715 4.14837C15.4092 3.33306 15.9042 2.59225 16.5282 1.96824C17.1522 1.34423 17.893 0.849241 18.7083 0.511529C19.5236 0.173818 20.3975 -1.315e-08 21.2799 0C23.0622 2.65577e-08 24.7714 0.707998 26.0317 1.96824C27.2919 3.22849 27.9999 4.93774 27.9999 6.72C27.9999 8.50225 27.2919 10.2115 26.0317 11.4718C24.7714 12.732 23.0622 13.44 21.2799 13.44Z" fill="#F60303"/>
</svg>
