<svg width="26" height="26" viewBox="0 0 26 26" fill="none" xmlns="http://www.w3.org/2000/svg">
<path fill-rule="evenodd" clip-rule="evenodd" d="M17.8962 2.31853C18.4294 1.78566 19.1524 1.48633 19.9063 1.48633C20.6601 1.48633 21.3832 1.78566 21.9164 2.31853L23.6812 4.08328C24.214 4.61653 24.5134 5.33955 24.5134 6.09341C24.5134 6.84727 24.214 7.57028 23.6812 8.10353L9.68991 22.0948C9.34866 22.436 8.92616 22.6863 8.46141 22.8179L3.17853 24.3292C2.96943 24.3889 2.74815 24.3916 2.53764 24.337C2.32713 24.2824 2.13507 24.1725 1.98138 24.0186C1.82768 23.8648 1.71796 23.6726 1.66359 23.462C1.60921 23.2515 1.61217 23.0302 1.67216 22.8212L3.18178 17.5399C3.31411 17.0745 3.563 16.6505 3.90491 16.3082L17.8962 2.31691V2.31853ZM20.1939 4.04103C20.1562 4.0032 20.1113 3.97318 20.062 3.9527C20.0126 3.93222 19.9597 3.92168 19.9063 3.92168C19.8528 3.92168 19.7999 3.93222 19.7506 3.9527C19.7012 3.97318 19.6564 4.0032 19.6187 4.04103L17.5679 6.09341L19.9063 8.43341L21.9587 6.38103C21.9965 6.3433 22.0265 6.29847 22.047 6.24911C22.0675 6.19976 22.078 6.14684 22.078 6.09341C22.078 6.03997 22.0675 5.98706 22.047 5.93771C22.0265 5.88835 21.9965 5.84352 21.9587 5.80578L20.1939 4.04103V4.04103ZM18.1822 10.1559L15.8438 7.81591L5.62903 18.0323C5.58 18.081 5.54421 18.1414 5.52503 18.2078L4.61828 21.3814L7.79191 20.4747C7.85833 20.4556 7.91875 20.4197 7.96741 20.3707L18.1822 10.1559Z" fill="#737682"/>
</svg>
