<svg width="40" height="40" viewBox="0 0 40 40" fill="none" xmlns="http://www.w3.org/2000/svg">
<path d="M30.3062 17.987L39.6875 9.80889C40.1062 9.44326 39.7812 8.75576 39.2312 8.84951L38.8343 8.91514C37.871 9.07563 36.9674 9.48861 36.2156 10.112L25.5375 18.8151L30.3062 17.987Z" fill="#FBC21A"/>
<path d="M39.3062 8.84046L30.4187 15.553H28.2312C28.2312 15.553 34.1125 11.1436 35.8531 9.91234C37.3093 8.88421 38.5156 8.78421 39.3062 8.84046V8.84046Z" fill="#1A6CA2"/>
<path d="M25.0812 13.453C25.0812 13.453 20.5937 14.3843 13.1718 18.2812C6.76247 21.6499 6.61871 21.5124 6.61871 21.5124C6.61871 21.5124 2.30934 23.3312 2.35621 24.0218C2.40309 24.7124 2.86246 25.9562 3.59996 26.0937C4.33746 26.2312 17.1906 25.053 18.3406 24.8499C21.7031 24.2499 26.7937 22.8499 30.3062 21.4593C33.8187 20.0687 36.3843 17.9905 37.075 15.8249C37.075 15.8249 37.5 14.7155 36.2562 14.7155C35.0125 14.7155 29.5906 14.9718 29.5906 14.9718C29.5906 14.9718 26.9687 13.0843 25.0812 13.453V13.453Z" fill="#CFD8DC"/>
<path d="M35.1531 17.2027C35.1531 17.2027 33.4594 18.7027 31.8 19.4339C29.0812 20.6308 21.3437 22.9089 18.825 23.5277C16.9 24.0027 12.9937 24.8371 11.1187 24.9464C8.63436 25.0871 7.67811 23.4433 6.61874 21.5089C5.75936 19.9402 4.47499 16.9339 3.87186 15.6183C3.81182 15.4876 3.70295 15.3856 3.56859 15.3342C3.43423 15.2828 3.28508 15.286 3.15311 15.3433L1.77499 15.9339C1.54999 16.0308 1.41249 16.2652 1.44374 16.5089L2.40624 24.2964C2.40624 24.2964 2.54374 25.8621 3.60311 26.0933C4.66249 26.3246 13.0906 25.4496 15.9031 25.3089C18.7156 25.1683 25.9687 23.3152 30.3094 21.4558C34.65 19.5964 35.4406 18.4058 36.2156 17.4308C36.2125 17.4339 35.6594 17.3871 35.1531 17.2027V17.2027Z" fill="#1A6CA2"/>
<path d="M7.00941 23.0098C7.00941 23.0098 6.73441 22.4098 5.16566 23.0098C3.59691 23.6098 2.58754 23.9317 2.58754 23.9317L0.190662 25.5661C-0.0812134 25.7505 0.0750366 26.1755 0.403162 26.138L1.67504 26.0005C1.71456 25.9971 1.75292 25.9854 1.78754 25.9661C2.27191 25.7067 6.01879 23.6973 7.00941 23.0098Z" fill="#FBC21A"/>
<path d="M28.9344 15.0816C28.9344 15.0816 26.55 16.6066 25.4094 17.8847C25.4094 17.8847 24.9594 18.1597 24.5813 17.6097C24.2 17.0566 23.4438 15.5066 24.0313 14.9784C24.6188 14.4503 25.6469 13.7003 26.2344 13.8316C27.5969 14.1347 28.9344 15.0816 28.9344 15.0816V15.0816Z" fill="#1A6CA2"/>
<path d="M36.2062 17.4625C36.1562 17.4594 34.7437 17.4188 34.5219 16.2907C34.3094 15.2063 34.8437 14.775 34.8437 14.775C34.8437 14.775 37.0469 14.4969 37.3375 15.0907C37.75 15.9469 36.2062 17.4625 36.2062 17.4625V17.4625Z" fill="#64878E"/>
<path d="M21.4594 18.8158C22.0738 18.8158 22.5719 18.3177 22.5719 17.7033C22.5719 17.0889 22.0738 16.5908 21.4594 16.5908C20.845 16.5908 20.3469 17.0889 20.3469 17.7033C20.3469 18.3177 20.845 18.8158 21.4594 18.8158Z" fill="#1A6CA2"/>
<path d="M17.8781 19.8406C18.3993 19.8406 18.8218 19.4181 18.8218 18.8969C18.8218 18.3757 18.3993 17.9531 17.8781 17.9531C17.3569 17.9531 16.9343 18.3757 16.9343 18.8969C16.9343 19.4181 17.3569 19.8406 17.8781 19.8406Z" fill="#1A6CA2"/>
<path d="M14.7907 20.6404C15.2256 20.6404 15.5782 20.2879 15.5782 19.8529C15.5782 19.418 15.2256 19.0654 14.7907 19.0654C14.3557 19.0654 14.0032 19.418 14.0032 19.8529C14.0032 20.2879 14.3557 20.6404 14.7907 20.6404Z" fill="#1A6CA2"/>
<path d="M25.3312 23.1191C25.3312 23.1191 24.9937 21.391 22.5718 21.6254C20.15 21.8597 15.1562 23.7129 15.1562 23.7129L3.53746 31.7879C3.18433 32.0316 3.22496 32.566 3.61246 32.7535C4.33738 33.1088 5.13757 33.2834 5.94462 33.2621C6.75167 33.2409 7.54159 33.0246 8.24683 32.6316L25.3312 23.1191Z" fill="#1A6CA2"/>
<path d="M21.875 21.1973L4.27185 33.7504H6.77185L26.875 22.7441L25.5375 21.1973H21.875Z" fill="#FBC21A"/>
</svg>
