<svg width="40" height="40" viewBox="0 0 40 40" fill="none" xmlns="http://www.w3.org/2000/svg">
<path d="M20 31.8826C26.5624 31.8826 31.8822 26.5628 31.8822 20.0004C31.8822 13.438 26.5624 8.11816 20 8.11816C13.4376 8.11816 8.1178 13.438 8.1178 20.0004C8.1178 26.5628 13.4376 31.8826 20 31.8826Z" fill="#FFCC4D"/>
<path d="M11.3655 25.2789C10.2711 25.3533 9.48884 24.9367 8.91772 24.26C9.1555 24.8789 9.45884 25.4611 9.79328 26.0245C10.6499 26.3456 11.5611 26.48 12.6155 25.7222C12.1011 25.47 11.6377 25.2611 11.3655 25.2789ZM25.6511 9.56445C25.7011 9.9289 25.4433 10.12 24.8177 9.96779C23.7566 9.71001 22.8255 10.83 22.2911 11.7667C21.2388 13.6078 16.8977 15.6822 16.8944 14.0856C16.8933 13.3311 13.0588 15.0222 12.5688 14.2645C12.1055 13.5489 10.7211 13.8245 10.4344 12.9667C9.13695 14.7269 8.35239 16.8122 8.16772 18.9911C8.58661 19.7889 9.12772 20.4156 9.66995 20.6867C10.4033 21.0533 13.8099 22.3845 14.3077 21.5345C15.1377 20.1167 20.1177 21.12 19.9988 20.3745C19.7711 18.9467 22.6955 20.1189 23.7466 18.2789C24.2822 17.3422 25.4499 16.6233 26.5122 16.8811C27.7522 17.1822 29.2822 15.0556 29.1666 12.4411C28.1905 11.2653 26.9969 10.2885 25.6511 9.56445V9.56445ZM29.1855 27.5367C28.8099 27.7211 28.4399 27.8622 28.1022 27.8989C25.6044 28.1689 25.0644 30.1267 23.3888 29.7911C22.5255 29.6178 21.3477 31.14 19.9999 31.2322C19.1106 31.2977 18.2256 31.4119 17.3488 31.5745C18.2182 31.776 19.1075 31.8793 19.9999 31.8822C23.7011 31.8822 27.0055 30.19 29.1855 27.5367V27.5367Z" fill="#F4900C"/>
<path d="M25.8055 9.63782C26.8592 10.231 27.8161 10.9815 28.6433 11.8634C31.4111 11.6889 33.0989 12.34 32.9578 13.8378C32.8844 14.6212 32.3078 15.5512 31.3678 16.5434C29.0255 19.0112 24.3578 21.8723 19.0678 23.8789C15.3911 25.2734 12.1144 25.99 9.77221 26.0278C7.38888 26.0667 5.97443 25.4023 6.10332 24.0245C6.18776 23.1189 6.93888 22.0178 8.1611 20.85C8.13999 20.5667 8.11776 20.2867 8.11776 20C8.11776 19.0578 8.23888 18.1456 8.44665 17.2656C3.66665 20.58 0.555542 24.23 0.555542 27.0767C0.555542 30.9512 6.2911 32.1412 14.1944 30.3623C16.1643 29.9127 18.1034 29.3378 20 28.6412C24.3333 27.0645 28.3211 24.9745 31.5544 22.7334C36.3333 19.4189 39.4444 15.7689 39.4444 12.9223C39.4444 9.04893 33.7089 7.85782 25.8055 9.63782V9.63782Z" fill="#E85E00"/>
<path d="M7.06219 20.057C6.25026 20.8415 5.54765 21.7317 4.9733 22.7037C4.42886 23.6503 3.96553 24.7159 4.03553 25.6715C4.07441 26.6226 4.7933 27.1892 5.76664 27.4515C6.73775 27.7037 7.81664 27.7703 8.91553 27.7059C11.1134 27.6036 13.2916 27.2437 15.4055 26.6337C17.5433 26.0726 19.6177 25.2726 21.6444 24.3715C25.7122 22.5497 29.5023 20.1624 32.9022 17.2803C33.3111 16.9103 33.7589 16.5592 34.1511 16.1848C34.5211 15.8103 34.87 15.3926 35.1622 14.9659C35.7422 14.1126 36.08 13.1137 35.5344 12.3526C34.99 11.5792 33.8733 11.1581 32.8089 10.9403C31.7189 10.7326 30.5755 10.6848 29.4422 10.817C30.5444 10.5226 31.7055 10.3781 32.8733 10.4659C34.0177 10.5681 35.2866 10.7992 36.2155 11.8226C36.6711 12.3303 36.8811 13.0948 36.7977 13.7626C36.7344 14.4415 36.4722 15.0403 36.1722 15.5792C35.8633 16.1181 35.5166 16.607 35.1222 17.077C34.7311 17.5259 34.3344 17.9403 33.9311 18.3692C30.6733 21.6959 26.7755 24.3848 22.53 26.3237C18.29 28.2348 13.67 29.5581 8.90664 29.3837C7.7333 29.3392 6.50997 29.2359 5.31108 28.7748C4.71775 28.5426 4.10886 28.2003 3.64441 27.6459C3.17805 27.0991 2.94327 26.392 2.98997 25.6748C3.09886 24.327 3.77219 23.2837 4.48886 22.3681C5.21733 21.4649 6.08618 20.6846 7.06219 20.057V20.057Z" fill="#F4900C"/>
</svg>
