<svg width="40" height="40" viewBox="0 0 40 40" fill="none" xmlns="http://www.w3.org/2000/svg">
<path d="M30.3125 21.3122L33.25 19.5622C34.25 18.8122 36 19.5622 37.125 21.2497C38.1875 22.9372 38.25 24.8747 37.25 25.6247C37.1875 25.6872 37.125 25.7497 37 25.7497L34.25 27.3747L30.3125 21.3122" fill="#3E4347"/>
<path d="M30.6875 25.6247C31.75 27.3122 33.25 28.1247 34.3125 27.3747C35.3125 26.6247 35.3125 24.6872 34.1875 22.9997C33.125 21.3122 31.375 20.5622 30.3125 21.3122C29.375 21.9997 29.875 24.4372 30.6875 25.6247" fill="#62696D"/>
<path d="M31.5 25.0623C32.0625 25.9373 32.8125 26.3748 33.375 25.9373C33.9375 25.5623 33.875 24.4998 33.3125 23.6248C32.75 22.7498 31.8125 22.3123 31.25 22.7498C30.75 23.1248 30.9375 24.1873 31.5 25.0623Z" fill="#3E4347"/>
<path d="M32 23.75C32.5625 23.4375 33.3125 24.25 32.9375 24.8125L30.5 26.3125L29.75 25L32 23.75Z" fill="#B2C1C0"/>
<path d="M29.8125 20.875V24.25L27.25 21.875L29.8125 20.875Z" fill="#9C2C1B"/>
<path d="M17.8125 10.3749L21.1875 8.3749C22.375 7.4999 24.375 8.3749 25.625 10.3124C26.875 12.2499 26.9375 14.4999 25.75 15.3749C25.6875 15.4374 25.5625 15.4999 25.5 15.4999L22.375 17.3749L17.8125 10.3749" fill="#3E4347"/>
<path d="M18.1875 15.3124C19.4375 17.2499 21.1875 18.1874 22.375 17.3124C23.5625 16.4374 23.5 14.1874 22.25 12.2499C21 10.3124 19 9.4374 17.8125 10.3124C16.6875 11.1249 17.3125 13.9374 18.1875 15.3124Z" fill="#62696D"/>
<path d="M31.9375 30.5625L24.8125 26.625L23 27.6875L15.75 26.0625L6.8125 19.3125V16.125L15.75 22.375L23 25L24.8125 23.6875L31.9375 29.4375V30.5625Z" fill="#9C2C1B"/>
<path d="M34.5625 27.75L31.9375 29.4375L24.8125 23.6875L23 25L15.75 22.375L6.8125 16.125L9.0625 14.8125L10.5625 15.1875L15.75 12.3125L15.6875 11.625L17.75 10.375L27.0625 16.5625L29.8125 20.875L27.875 21.8125L34.5625 27.75Z" fill="#D33B23"/>
<path d="M9.75 9.875V12.625L16.375 15.8125L19.3125 14.4375L11.5625 11.4375V9.875H9.75Z" fill="#F15744"/>
<path d="M19.3125 16.8125V14.4375L16.375 15.8125L9.75 12.625V9.875H9.375V12.875L16.375 18.125L19.3125 16.8125Z" fill="#9C2C1B"/>
<path d="M27.0625 16.5625L29.8125 20.875L23 25L15.75 22.375L27.0625 16.5625Z" fill="#F15744"/>
<path d="M27.0625 16.5625L29.8125 20.875L29.0625 21.3125L26.25 16.9375L27.0625 16.5625Z" fill="#FFE62E"/>
<path d="M17.8125 10.375L27.0625 16.5625L26.25 16.9375L17.0625 10.8125L17.8125 10.375ZM17.1875 21.625L24 24.375L23 25L15.75 22.375L17.1875 21.625Z" fill="#FFE62E"/>
<path d="M7.9375 15.4375L17.1875 21.625L15.75 22.375L6.8125 16.125L7.9375 15.4375Z" fill="#FFE62E"/>
<path d="M16.375 18.1249C16.1875 19.4374 18.1875 21.1249 20.125 21.3749C23.5 21.8749 25.0625 19.9374 24.0625 17.9374C23.125 16.1249 19.375 16.4999 19.375 16.4999L16.375 18.1249Z" fill="#9C2C1B"/>
<path d="M3.125 18.6876L7 16.3751C8.375 15.3751 10.625 16.3751 12 18.5626C13.4375 20.7501 13.5 23.3126 12.125 24.2501C12.0625 24.3126 11.9375 24.3751 11.8125 24.4376L8.25 26.5626L3.125 18.6876Z" fill="#3E4347"/>
<path d="M3.56253 24.3126C5.00003 26.5001 6.93753 27.5626 8.31253 26.5626C9.68753 25.5626 9.56253 23.0626 8.18753 20.8751C6.75003 18.6876 4.50003 17.6876 3.18753 18.6876C1.87503 19.6251 2.56253 22.7501 3.56253 24.3126" fill="#62696D"/>
<path d="M4.68752 23.5625C5.43752 24.75 6.37502 25.25 7.12502 24.75C7.81252 24.25 7.81252 22.875 7.06252 21.6875C6.25002 20.5625 5.06252 20 4.31252 20.5625C3.62502 21.0625 3.93752 22.375 4.68752 23.5625Z" fill="#3E4347"/>
<path d="M19.6875 27.0624L23.0625 25.0624C24.25 24.1874 26.25 25.0624 27.5 26.9999C28.75 28.9374 28.8125 31.1874 27.625 32.0624C27.5625 32.1249 27.4375 32.1874 27.375 32.1874L24.25 34.0624L19.6875 27.0624" fill="#3E4347"/>
<path d="M20.0625 32.0624C21.3125 33.9999 23.0625 34.9374 24.25 34.0624C25.4375 33.1874 25.375 30.9374 24.125 28.9999C22.875 27.0624 20.875 26.1874 19.6875 27.0624C18.5625 27.8749 19.1875 30.6874 20.0625 32.0624Z" fill="#62696D"/>
<path d="M21.0625 31.3749C21.75 32.3749 22.5625 32.8749 23.1875 32.4374C23.8125 31.9999 23.8125 30.7499 23.125 29.7499C22.4375 28.7499 21.375 28.2499 20.75 28.7499C20.125 29.1874 20.375 30.3749 21.0625 31.3749" fill="#3E4347"/>
<path d="M14.1875 5.625L16.6875 7.875L5.0625 14L1.25 10.5L14.1875 5.625Z" fill="#D33B23"/>
<path d="M17.25 17.9375C17.25 19.8125 19.5 20.75 21.25 20.75C23.0625 20.75 23.6875 19.8125 23.6875 17.9375C23.6875 16.0625 22.25 14.5625 20.4375 14.5625C18.6875 14.5625 17.25 16.0625 17.25 17.9375" fill="#42ADE2"/>
<path d="M19.1875 17.8754C19.25 17.1879 21.625 17.1879 23.4375 17.0629C24 17.0004 23.9375 19.1254 23.4375 19.1879C20.5625 19.4379 19.125 18.5629 19.1875 17.8754" fill="#3E4347"/>
<path d="M37.5 25.5625L38.75 28.3125L30.5625 33.8125L26.875 32.125L34.25 27.5625L37.5 25.5625Z" fill="#F15744"/>
<path d="M3 9.8125L7 13L8.125 12.4375L4.5 9.25L3 9.8125ZM12 6.4375L14.6875 8.9375L15.5 8.5L13 6.0625L12 6.4375ZM35.75 26.6875L37.125 29.375L37.8125 28.9375L36.5625 26.1875L35.75 26.6875ZM28.5 31.125L31.5625 33.125L32.25 32.625L29.375 30.625L28.5 31.125Z" fill="#FFE62E"/>
</svg>
