<svg width="40" height="40" viewBox="0 0 40 40" fill="none" xmlns="http://www.w3.org/2000/svg">
<path d="M38.6188 11.6187C38.2719 10.4719 38.6594 9.25625 38.4438 8.09062C38.2656 7.10937 37.825 6.1875 37.3 5.34687C36.35 3.825 34.425 3.1375 32.725 2.925C31.575 2.78125 30.3594 2.93437 29.3094 2.34062C28.5438 1.90937 27.7313 1.45312 26.8938 1.12812C24.7906 0.31875 22.3781 0.209375 20.1438 0.14375L20 0.140625L19.8563 0.14375C17.625 0.209375 15.2125 0.31875 13.1094 1.12812C12.2719 1.45 11.4594 1.90625 10.6938 2.34062C9.64376 2.93437 8.42813 2.78125 7.27501 2.925C5.57813 3.13437 3.65313 3.82187 2.70313 5.34687C2.17813 6.1875 1.74063 7.10937 1.55938 8.09062C1.34376 9.25625 1.73126 10.4719 1.38438 11.6187C1.30626 11.8781 0.978132 12.2625 1.10626 12.5531C1.23751 12.8562 1.95938 13.0781 2.23126 13.2344C3.14063 13.7687 4.14063 14.1469 5.15313 14.4469C5.83126 14.65 6.53751 15.0687 7.27188 14.9656C7.58751 14.9219 7.83126 14.7937 7.87813 14.4687C8.01876 13.475 8.36876 12.4625 8.69376 11.5187C8.78126 11.2625 8.91251 10.8062 9.28126 10.8375C9.53126 10.8594 9.67188 11.3969 9.65626 11.5937C9.59688 12.3406 9.42188 13.0812 9.39376 13.8312C9.36251 14.6187 9.58751 15.2594 9.83751 15.9875C10.1188 16.7969 10.4625 17.5875 10.7063 18.4094C10.9656 19.3062 10.8094 20.2531 10.5469 21.1312C9.91563 23.225 9.05938 25.1406 8.22188 27.1531C7.90626 27.9062 7.63126 28.675 7.32188 29.4312C7.18148 29.774 7.03142 30.1126 6.87188 30.4469C6.43751 31.3594 5.50626 32.0437 5.62501 33.1812C5.81251 34.9687 7.48751 36.0062 8.87813 36.8656C12.1813 38.9094 16.1188 39.8781 20.0031 39.8594C23.8906 39.8781 27.8281 38.9125 31.1344 36.8656C32.5219 36.0062 34.2 34.9687 34.3875 33.1812C34.5063 32.0469 33.5719 31.3594 33.1406 30.4469C32.9844 30.1156 32.8313 29.7719 32.6938 29.4312C32.3875 28.675 32.1094 27.9062 31.7938 27.1531C30.9531 25.1406 30.0969 23.225 29.4688 21.1312C29.2063 20.2531 29.0469 19.3062 29.3094 18.4094C29.55 17.5844 29.8969 16.7969 30.175 15.9875C30.4281 15.2594 30.65 14.6187 30.6219 13.8312C30.5969 13.0781 30.4188 12.3406 30.3594 11.5937C30.3469 11.4 30.4844 10.8594 30.7313 10.8375C31.1031 10.8094 31.2344 11.2625 31.3219 11.5187C31.6469 12.4656 31.9969 13.4781 32.1375 14.4687C32.1844 14.7937 32.4281 14.9219 32.7438 14.9656C33.4813 15.0687 34.1813 14.65 34.8625 14.4469C35.875 14.1469 36.8719 13.7687 37.7844 13.2344C38.0531 13.0781 38.775 12.8562 38.9094 12.5531C39.025 12.2625 38.7 11.8781 38.6188 11.6187V11.6187Z" fill="#FCC21B"/>
<path d="M16.825 8.36574C16.0125 8.72511 15.0781 8.66574 14.2562 8.36261L14.2031 8.34386C13.7375 8.16574 13.2437 7.85949 12.8625 7.53449C11.6437 6.47511 11.5218 4.62824 12.0031 3.18449C12.1281 2.80636 12.5593 2.29699 13.0093 2.39074C13.075 2.40636 13.1437 2.43136 13.2125 2.46574C13.6625 2.70011 14 3.07824 14.4093 3.36886C15.1218 3.87511 15.8593 4.09699 16.6625 4.40949C17.225 4.62511 17.8031 4.80324 18.3875 4.92824C18.5437 4.95949 18.7187 5.01261 18.8625 5.06574C19.0875 5.15011 19.1 5.40011 19.1093 5.60636C19.1375 6.13449 18.5875 6.80324 18.2781 7.19074C17.8875 7.67511 17.4093 8.10949 16.825 8.36574V8.36574ZM26.9187 7.53136C26.5406 7.85949 26.0468 8.16261 25.5781 8.34074L25.5281 8.35949C24.7093 8.66261 23.7718 8.72199 22.9593 8.36261C22.375 8.10636 21.8968 7.67511 21.5031 7.18136C21.1937 6.79699 20.6437 6.12511 20.6718 5.59699C20.6843 5.39074 20.6968 5.14074 20.9218 5.05636C21.0687 5.00011 21.2437 4.95011 21.3968 4.91886C21.9843 4.79386 22.5625 4.61574 23.125 4.40011C23.9281 4.09074 24.6656 3.86574 25.3781 3.35949C25.7875 3.06886 26.1281 2.68761 26.575 2.45636C26.6437 2.42199 26.7125 2.39386 26.7781 2.38136C27.2281 2.28761 27.6562 2.80011 27.7812 3.17511C28.2625 4.62511 28.1406 6.47199 26.9187 7.53136V7.53136Z" fill="white"/>
<path d="M19.9032 33.6652C20.7109 33.6652 21.3657 33.0105 21.3657 32.2027C21.3657 31.395 20.7109 30.7402 19.9032 30.7402C19.0955 30.7402 18.4407 31.395 18.4407 32.2027C18.4407 33.0105 19.0955 33.6652 19.9032 33.6652Z" fill="#F79329"/>
<path d="M19.9032 26.1496C20.7109 26.1496 21.3657 25.4948 21.3657 24.6871C21.3657 23.8794 20.7109 23.2246 19.9032 23.2246C19.0955 23.2246 18.4407 23.8794 18.4407 24.6871C18.4407 25.4948 19.0955 26.1496 19.9032 26.1496Z" fill="#F79329"/>
<path d="M19.9032 18.6379C20.7109 18.6379 21.3657 17.9831 21.3657 17.1754C21.3657 16.3677 20.7109 15.7129 19.9032 15.7129C19.0955 15.7129 18.4407 16.3677 18.4407 17.1754C18.4407 17.9831 19.0955 18.6379 19.9032 18.6379Z" fill="#F79329"/>
<path d="M19.9032 11.1223C20.7109 11.1223 21.3657 10.4675 21.3657 9.65977C21.3657 8.85205 20.7109 8.19727 19.9032 8.19727C19.0955 8.19727 18.4407 8.85205 18.4407 9.65977C18.4407 10.4675 19.0955 11.1223 19.9032 11.1223Z" fill="#F79329"/>
</svg>
