<svg width="22" height="22" viewBox="0 0 22 22" fill="none" xmlns="http://www.w3.org/2000/svg">
<path d="M8.24992 18.3337C8.75617 18.3337 9.16658 18.7441 9.16658 19.2503C9.16658 19.7566 8.75617 20.167 8.24992 20.167C7.74366 20.167 7.33325 19.7566 7.33325 19.2503C7.33325 18.7441 7.74366 18.3337 8.24992 18.3337ZM14.6666 18.3337C15.1729 18.3337 15.5833 18.7441 15.5833 19.2503C15.5833 19.7566 15.1729 20.167 14.6666 20.167C14.1603 20.167 13.7499 19.7566 13.7499 19.2503C13.7499 18.7441 14.1603 18.3337 14.6666 18.3337ZM3.2037 2.4121L3.29997 2.47538L4.86541 3.64946C5.13346 3.8505 5.33977 4.11993 5.46434 4.42708L5.51972 4.58366H17.2949C18.3517 4.58366 19.1793 5.47129 19.1261 6.50834L19.1141 6.64439L18.6952 9.9952C18.4351 12.0765 16.7984 13.7061 14.7356 13.9722L14.5279 13.9942L7.82463 14.5529L8.06252 15.5837H16.0417C16.5479 15.5837 16.9583 15.9941 16.9583 16.5004C16.9583 16.9704 16.6044 17.358 16.1486 17.4109L16.0417 17.4171H8.06252C7.25904 17.4171 6.55564 16.8951 6.31563 16.1402L6.27614 15.996L3.76541 5.11612L2.19997 3.94205C1.79496 3.63829 1.71288 3.06372 2.01664 2.65871C2.27366 2.31601 2.72458 2.20452 3.10261 2.36235L3.2037 2.4121ZM17.2949 6.41699H5.94713L7.4081 12.7479L14.3756 12.1672C15.6716 12.0593 16.7147 11.0583 16.876 9.76787L17.2949 6.41699Z" fill="#737682"/>
</svg>
